<svg xmlns="http://www.w3.org/2000/svg" width="20" height="20" viewBox="0 0 20 20" fill=""><path fill-rule="evenodd" clip-rule="evenodd" d="M7.09091 1H2C1.44771 1 1 1.44772 1 2V7.09091C1 7.64319 1.44772 8.09091 2 8.09091H7.09091C7.64319 8.09091 8.09091 7.64319 8.09091 7.09091V2C8.09091 1.44771 7.64319 1 7.09091 1ZM2 0C0.895431 0 0 0.89543 0 2V7.09091C0 8.19548 0.89543 9.09091 2 9.09091H7.09091C8.19548 9.09091 9.09091 8.19548 9.09091 7.09091V2C9.09091 0.895431 8.19548 0 7.09091 0H2Z"></path><path fill-rule="evenodd" clip-rule="evenodd" d="M7.09091 11.9092H2C1.44771 11.9092 1 12.3569 1 12.9092V18.0001C1 18.5524 1.44772 19.0001 2 19.0001H7.09091C7.64319 19.0001 8.09091 18.5524 8.09091 18.0001V12.9092C8.09091 12.3569 7.64319 11.9092 7.09091 11.9092ZM2 10.9092C0.895431 10.9092 0 11.8046 0 12.9092V18.0001C0 19.1047 0.89543 20.0001 2 20.0001H7.09091C8.19548 20.0001 9.09091 19.1047 9.09091 18.0001V12.9092C9.09091 11.8046 8.19548 10.9092 7.09091 10.9092H2Z"></path><path fill-rule="evenodd" clip-rule="evenodd" d="M18 11.9092H12.9091C12.3568 11.9092 11.9091 12.3569 11.9091 12.9092V18.0001C11.9091 18.5524 12.3568 19.0001 12.9091 19.0001H18C18.5523 19.0001 19 18.5524 19 18.0001V12.9092C19 12.3569 18.5523 11.9092 18 11.9092ZM12.9091 10.9092C11.8045 10.9092 10.9091 11.8046 10.9091 12.9092V18.0001C10.9091 19.1047 11.8045 20.0001 12.9091 20.0001H18C19.1046 20.0001 20 19.1047 20 18.0001V12.9092C20 11.8046 19.1046 10.9092 18 10.9092H12.9091Z"></path><path fill-rule="evenodd" clip-rule="evenodd" d="M18 1H12.9091C12.3568 1 11.9091 1.44772 11.9091 2V7.09091C11.9091 7.64319 12.3568 8.09091 12.9091 8.09091H18C18.5523 8.09091 19 7.64319 19 7.09091V2C19 1.44771 18.5523 1 18 1ZM12.9091 0C11.8045 0 10.9091 0.89543 10.9091 2V7.09091C10.9091 8.19548 11.8045 9.09091 12.9091 9.09091H18C19.1046 9.09091 20 8.19548 20 7.09091V2C20 0.895431 19.1046 0 18 0H12.9091Z"></path></svg>